<?xml version="1.0" standalone="no"?>
<!DOCTYPE svg PUBLIC "-//W3C//DTD SVG 20010904//EN"
 "http://www.w3.org/TR/2001/REC-SVG-20010904/DTD/svg10.dtd">
<svg version="1.0" xmlns="http://www.w3.org/2000/svg"
 width="286.000000pt" height="286.000000pt" viewBox="0 0 286.000000 286.000000"
 preserveAspectRatio="xMidYMid meet">
<metadata>
Created by potrace 1.14, written by Peter Selinger 2001-2017
</metadata>
<g transform="translate(0.000000,286.000000) scale(0.100000,-0.100000)"
fill="#000000" stroke="none">
<path d="M296 2845 c-15 -15 -16 -116 -16 -1234 0 -933 3 -1220 12 -1229 9 -9
74 -12 230 -12 l218 0 0 -169 c0 -141 3 -172 16 -185 8 -9 23 -16 32 -16 9 0
54 37 99 82 l82 82 85 -82 c86 -84 116 -98 136 -63 6 11 10 92 10 188 l1 168
23 -48 c46 -94 114 -138 209 -138 94 0 161 42 203 127 l26 54 443 0 c244 0
450 3 459 6 14 6 16 123 16 1233 0 1259 0 1251 -37 1251 -7 0 -260 -165 -562
-366 l-549 -366 -543 363 c-299 199 -551 364 -560 366 -9 3 -23 -3 -33 -12z
m613 -470 l480 -320 1 -688 0 -689 -29 19 c-16 10 -245 162 -510 338 l-480
320 -1 688 0 689 29 -19 c16 -10 245 -162 510 -338z m1591 -330 l0 -685 -510
-340 -510 -340 0 688 0 689 503 336 c276 184 505 336 510 336 4 1 7 -307 7
-684z m-1917 -933 l157 -105 0 -68 0 -67 -185 61 -185 62 0 128 0 129 28 -18
c15 -9 98 -65 185 -122z m1915 11 l-3 -126 -369 -123 c-203 -68 -371 -122
-373 -120 -4 3 729 494 740 495 4 1 6 -56 5 -126z m-1523 -273 l135 -90 0
-304 0 -303 -58 59 c-39 38 -67 58 -82 58 -16 0 -43 -20 -82 -60 l-58 -59 0
394 c0 217 2 395 5 395 3 0 66 -41 140 -90z"/>
<path d="M486 2357 c-11 -8 -17 -22 -14 -38 2 -19 75 -73 378 -276 263 -177
382 -252 399 -250 28 2 47 27 38 50 -5 14 -736 510 -771 523 -6 2 -20 -2 -30
-9z"/>
<path d="M486 1987 c-11 -8 -17 -22 -14 -38 2 -19 75 -73 378 -276 263 -177
382 -252 399 -250 28 2 47 27 38 50 -5 14 -736 510 -771 523 -6 2 -20 -2 -30
-9z"/>
<path d="M486 1617 c-11 -8 -17 -22 -14 -38 2 -19 75 -73 378 -276 263 -177
382 -252 399 -250 28 2 47 27 38 50 -5 14 -736 510 -771 523 -6 2 -20 -2 -30
-9z"/>
<path d="M1966 2114 c-262 -174 -386 -263 -390 -277 -10 -39 -7 -734 4 -762 8
-22 15 -26 38 -23 15 2 197 118 405 256 l377 252 0 395 c0 380 -1 395 -19 405
-11 5 -22 10 -25 10 -3 0 -178 -115 -390 -256z m344 12 l0 -105 -96 33 c-52
17 -95 35 -95 40 0 6 175 132 189 135 1 1 2 -46 2 -103z m-190 -333 l0 -128
-106 -70 c-59 -38 -120 -78 -135 -88 l-29 -19 0 126 0 126 133 89 c72 49 133
90 135 90 1 1 2 -56 2 -126z m-293 110 c-27 -49 -150 -253 -153 -253 -2 0 -4
35 -4 79 l0 78 78 52 c80 53 86 56 79 44z m483 -213 l0 -79 -76 -52 c-42 -28
-77 -49 -79 -47 -3 3 147 258 152 258 2 0 3 -36 3 -80z m-450 -371 c0 -5 -53
-42 -162 -113 l-28 -18 0 100 0 100 95 -31 c52 -17 95 -34 95 -38z"/>
</g>
</svg>
